<mxfile host="65bd71144e">
    <diagram id="jSQ_Zl83mbZfmZJFPCR8" name="Page-1">
        <mxGraphModel dx="415" dy="704" grid="1" gridSize="10" guides="1" tooltips="1" connect="1" arrows="1" fold="1" page="1" pageScale="1" pageWidth="827" pageHeight="1169" math="0" shadow="0">
            <root>
                <mxCell id="0"/>
                <mxCell id="1" parent="0"/>
                <mxCell id="11" value="" style="sketch=0;pointerEvents=1;shadow=0;dashed=0;html=1;strokeColor=none;fillColor=#434445;aspect=fixed;labelPosition=center;verticalLabelPosition=bottom;verticalAlign=top;align=center;outlineConnect=0;shape=mxgraph.vvd.physical_network_adapter;" parent="1" vertex="1">
                    <mxGeometry x="368.44" y="307" width="101.72" height="59" as="geometry"/>
                </mxCell>
                <mxCell id="13" value="" style="sketch=0;pointerEvents=1;shadow=0;dashed=0;html=1;strokeColor=none;fillColor=#434445;aspect=fixed;labelPosition=center;verticalLabelPosition=bottom;verticalAlign=top;align=center;outlineConnect=0;shape=mxgraph.vvd.physical_network_adapter;" parent="1" vertex="1">
                    <mxGeometry x="396" y="241.37" width="46.6" height="27.03" as="geometry"/>
                </mxCell>
                <mxCell id="14" value="" style="endArrow=none;startArrow=classic;html=1;strokeWidth=4;curved=1;endFill=0;" parent="1" source="11" target="13" edge="1">
                    <mxGeometry width="50" height="50" relative="1" as="geometry">
                        <mxPoint x="420" y="351" as="sourcePoint"/>
                        <mxPoint x="420" y="271" as="targetPoint"/>
                        <Array as="points">
                            <mxPoint x="330" y="270"/>
                        </Array>
                    </mxGeometry>
                </mxCell>
                <mxCell id="15" value="" style="aspect=fixed;html=1;points=[];align=center;image;fontSize=12;image=img/lib/azure2/general/Counter.svg;" parent="1" vertex="1">
                    <mxGeometry x="429" y="236.00000000000003" width="24" height="19.5" as="geometry"/>
                </mxCell>
                <mxCell id="16" value="" style="whiteSpace=wrap;html=1;shape=mxgraph.basic.isocube;isoAngle=15;gradientColor=none;" parent="1" vertex="1">
                    <mxGeometry x="470.72" y="284.5" width="14.36" height="17" as="geometry"/>
                </mxCell>
                <mxCell id="18" value="" style="endArrow=classic;startArrow=none;html=1;strokeWidth=4;curved=1;startFill=0;" parent="1" source="11" edge="1">
                    <mxGeometry width="50" height="50" relative="1" as="geometry">
                        <mxPoint x="442.22352941176484" y="321" as="sourcePoint"/>
                        <mxPoint x="453" y="267.02756132756133" as="targetPoint"/>
                        <Array as="points">
                            <mxPoint x="480" y="291"/>
                        </Array>
                    </mxGeometry>
                </mxCell>
                <mxCell id="19" value="" style="sketch=0;pointerEvents=1;shadow=0;dashed=0;html=1;strokeColor=none;fillColor=#434445;aspect=fixed;labelPosition=center;verticalLabelPosition=bottom;verticalAlign=top;align=center;outlineConnect=0;shape=mxgraph.vvd.physical_network_adapter;" parent="1" vertex="1">
                    <mxGeometry x="618.28" y="301.5" width="101.72" height="59" as="geometry"/>
                </mxCell>
                <mxCell id="23" value="" style="whiteSpace=wrap;html=1;shape=mxgraph.basic.isocube;isoAngle=15;gradientColor=none;" parent="1" vertex="1">
                    <mxGeometry x="705.64" y="260" width="14.36" height="17" as="geometry"/>
                </mxCell>
                <mxCell id="26" value="" style="group" parent="1" vertex="1" connectable="0">
                    <mxGeometry x="619" y="297" width="34" height="34.75" as="geometry"/>
                </mxCell>
                <mxCell id="25" value="" style="html=1;verticalLabelPosition=bottom;align=center;labelBackgroundColor=#ffffff;verticalAlign=top;strokeWidth=2;strokeColor=#0080F0;shadow=0;dashed=0;shape=mxgraph.ios7.icons.gauge;gradientColor=none;" parent="26" vertex="1">
                    <mxGeometry width="31.4" height="27.5" as="geometry"/>
                </mxCell>
                <mxCell id="22" value="" style="aspect=fixed;html=1;points=[];align=center;image;fontSize=12;image=img/lib/azure2/general/Counter.svg;" parent="26" vertex="1">
                    <mxGeometry x="10" y="15.25" width="24" height="19.5" as="geometry"/>
                </mxCell>
                <mxCell id="28" value="Deserialization Probe" style="text;html=1;align=center;verticalAlign=middle;resizable=0;points=[];autosize=1;strokeColor=none;fillColor=none;" parent="1" vertex="1">
                    <mxGeometry x="354.3" y="370" width="130" height="20" as="geometry"/>
                </mxCell>
                <mxCell id="29" value="Packet Flank Counter" style="text;html=1;align=center;verticalAlign=middle;resizable=0;points=[];autosize=1;strokeColor=none;fillColor=none;" parent="1" vertex="1">
                    <mxGeometry x="605" y="370" width="130" height="20" as="geometry"/>
                </mxCell>
                <mxCell id="24" value="" style="endArrow=classic;startArrow=none;html=1;strokeWidth=4;curved=1;startFill=0;" parent="1" edge="1">
                    <mxGeometry width="50" height="50" relative="1" as="geometry">
                        <mxPoint x="708" y="310" as="sourcePoint"/>
                        <mxPoint x="635" y="304" as="targetPoint"/>
                        <Array as="points">
                            <mxPoint x="731" y="281"/>
                            <mxPoint x="631" y="260"/>
                        </Array>
                    </mxGeometry>
                </mxCell>
                <mxCell id="33" value="" style="pointerEvents=1;verticalLabelPosition=bottom;shadow=0;dashed=0;align=center;html=1;verticalAlign=top;shape=mxgraph.electrical.waveforms.pulse_1;fontFamily=Lucida Console;fontSize=30;" parent="1" vertex="1">
                    <mxGeometry x="667" y="239" width="15" height="24.5" as="geometry"/>
                </mxCell>
                <mxCell id="34" value="" style="pointerEvents=1;verticalLabelPosition=bottom;shadow=0;dashed=0;align=center;html=1;verticalAlign=top;shape=mxgraph.electrical.waveforms.pulse_1;fontFamily=Lucida Console;fontSize=30;" parent="1" vertex="1">
                    <mxGeometry x="652" y="239" width="15" height="24.5" as="geometry"/>
                </mxCell>
                <mxCell id="35" value="" style="pointerEvents=1;verticalLabelPosition=bottom;shadow=0;dashed=0;align=center;html=1;verticalAlign=top;shape=mxgraph.electrical.waveforms.pulse_1;fontFamily=Lucida Console;fontSize=30;" parent="1" vertex="1">
                    <mxGeometry x="637" y="239" width="15" height="24.5" as="geometry"/>
                </mxCell>
                <mxCell id="36" value="" style="pointerEvents=1;verticalLabelPosition=bottom;shadow=0;dashed=0;align=center;html=1;verticalAlign=top;shape=mxgraph.electrical.waveforms.pulse_1;fontFamily=Lucida Console;fontSize=30;" parent="1" vertex="1">
                    <mxGeometry x="622" y="239" width="15" height="24.5" as="geometry"/>
                </mxCell>
            </root>
        </mxGraphModel>
    </diagram>
</mxfile>